<svg width="9" height="13" viewBox="0 0 9 13" fill="none" xmlns="http://www.w3.org/2000/svg">
<path d="M1.96584 11.7951C3.05099 11.7951 3.93169 10.9144 3.93169 9.82922V7.86338H1.96584C0.880698 7.86338 0 8.74408 0 9.82922C0 10.9144 0.880698 11.7951 1.96584 11.7951Z" transform="translate(0.501465 0.839848)" fill="white"/>
<path d="M0 5.89753C0 4.81239 0.880698 3.93169 1.96584 3.93169H3.93169V7.86338H1.96584C0.880698 7.86338 0 6.98268 0 5.89753Z" transform="translate(0.501465 0.839848)" fill="white"/>
<path d="M0 1.96584C0 0.880698 0.880698 0 1.96584 0H3.93169V3.93169H1.96584C0.880698 3.93169 0 3.05099 0 1.96584Z" transform="translate(0.501465 0.839848)" fill="white"/>
<path d="M3.93169 0H5.89753C6.98268 0 7.86338 0.880698 7.86338 1.96584C7.86338 3.05099 6.98268 3.93169 5.89753 3.93169H3.93169V0Z" transform="translate(0.501465 0.839848)" fill="white"/>
<path d="M7.86338 5.89753C7.86338 6.98268 6.98268 7.86338 5.89753 7.86338C4.81239 7.86338 3.93169 6.98268 3.93169 5.89753C3.93169 4.81239 4.81239 3.93169 5.89753 3.93169C6.98268 3.93169 7.86338 4.81239 7.86338 5.89753Z" transform="translate(0.501465 0.839848)" fill="white"/>
</svg>
